REM COMMENT "Generated by IcecastMetadataRecorder https://github.com/eshaz/icecast-metadata-js"
REM BR "16"
REM METAINT "64"
REM DATE "2020-07-29T21:16:11.222Z"
TITLE "isics-all"
FILE "isics-all.mp3" WAVE
  TRACK 1 AUDIO
    TITLE "2020-07-29T21:29:12.278Z TO:24631 Dallas County Fire/EMS Operations FROM:2559984"
    INDEX 01 13:01:04
  TRACK 2 AUDIO
    TITLE "2020-07-29T21:29:15.014Z TO:5002 Department of Public Safety - Area A Law 2A - DPS District #1 FROM:UNKNOWN"
    INDEX 01 13:03:59
  TRACK 3 AUDIO
    TITLE "2020-07-29T21:29:18.542Z TO:177 Polk County - Westcom Fire 2 FROM:1007"
    INDEX 01 13:07:24
  TRACK 4 AUDIO
    TITLE "2020-07-29T21:29:20.630Z TO:24631 Dallas County Fire/EMS Operations FROM:UNKNOWN"
    INDEX 01 13:09:31
  TRACK 5 AUDIO
    TITLE "2020-07-29T21:29:22.790Z TO:177 Polk County - Westcom Fire 2 FROM:1727"
    INDEX 01 13:11:43
  TRACK 6 AUDIO
    TITLE "2020-07-29T21:29:26.246Z TO:7300 Department of Transportation - District 1 Highway Helper - Des Moines Area FROM:14950"
    INDEX 01 13:15:02
  TRACK 7 AUDIO
    TITLE "2020-07-29T21:29:35.390Z TO:177 Polk County - Westcom Fire 2 FROM:1007"
    INDEX 01 13:24:13
  TRACK 8 AUDIO
    TITLE "2020-07-29T21:29:37.478Z TO:7300 Department of Transportation - District 1 Highway Helper - Des Moines Area FROM:14966"
    INDEX 01 13:26:19
  TRACK 9 AUDIO
    TITLE "2020-07-29T21:29:39.566Z TO:24631 Dallas County Fire/EMS Operations FROM:2559984"
    INDEX 01 13:28:26
  TRACK 10 AUDIO
    TITLE "END"
    INDEX 01 13:32:39